<mxfile host="Copilot">
    <diagram id="ComponentLevelDiagram" name="Multi-Agent AI System">
        <mxGraphModel dx="1500" dy="900" grid="1" gridSize="10" guides="1" tooltips="1" connect="1" arrows="1" fold="1" page="1" pageScale="1" pageWidth="1600" pageHeight="1200" math="0" shadow="0">
            <root>
                <mxCell id="0"/>
                <mxCell id="1" parent="0"/>
                  <!-- UI Layer -->
                <mxCell id="2" value="Web UI Dashboard" style="rounded=1;whiteSpace=wrap;html=1;fillColor=#e1d5e7;strokeColor=#9673a6;fontSize=14;fontStyle=1;" vertex="1" parent="1">
                    <mxGeometry x="50" y="80" width="180" height="60" as="geometry"/>
                </mxCell>
                
                <mxCell id="3" value="Document Upload Interface" style="rounded=1;whiteSpace=wrap;html=1;fillColor=#cfe2f3;strokeColor=#6d9eeb;" vertex="1" parent="1">
                    <mxGeometry x="50" y="170" width="180" height="50" as="geometry"/>
                </mxCell>
                
                <mxCell id="4" value="Progress Monitor" style="rounded=1;whiteSpace=wrap;html=1;fillColor=#cfe2f3;strokeColor=#6d9eeb;" vertex="1" parent="1">
                    <mxGeometry x="50" y="240" width="180" height="50" as="geometry"/>
                </mxCell>
                
                <mxCell id="5" value="Human Approval Interface" style="rounded=1;whiteSpace=wrap;html=1;fillColor=#cfe2f3;strokeColor=#6d9eeb;" vertex="1" parent="1">
                    <mxGeometry x="50" y="310" width="180" height="50" as="geometry"/>
                </mxCell>
                
                <mxCell id="6" value="Results Viewer &amp; Download" style="rounded=1;whiteSpace=wrap;html=1;fillColor=#cfe2f3;strokeColor=#6d9eeb;" vertex="1" parent="1">
                    <mxGeometry x="50" y="380" width="180" height="50" as="geometry"/>
                </mxCell>
                
                <!-- Input Documents -->
                <mxCell id="7" value="Quarterly Earnings Report (PDF)" style="shape=document;whiteSpace=wrap;html=1;boundedLbl=1;fillColor=#dae8fc;strokeColor=#6c8ebf;" vertex="1" parent="1">
                    <mxGeometry x="320" y="100" width="140" height="70" as="geometry"/>
                </mxCell>
                
                <mxCell id="8" value="Previous Quarter First Cut Model (CSV)" style="shape=document;whiteSpace=wrap;html=1;boundedLbl=1;fillColor=#dae8fc;strokeColor=#6c8ebf;" vertex="1" parent="1">
                    <mxGeometry x="320" y="200" width="140" height="70" as="geometry"/>
                </mxCell>
                
                <mxCell id="9" value="Excel Documents" style="shape=document;whiteSpace=wrap;html=1;boundedLbl=1;fillColor=#dae8fc;strokeColor=#6c8ebf;" vertex="1" parent="1">
                    <mxGeometry x="320" y="300" width="140" height="70" as="geometry"/>
                </mxCell>
                
                <!-- Document Manager -->
                <mxCell id="10" value="Document Manager" style="rounded=1;whiteSpace=wrap;html=1;fillColor=#ffe6cc;strokeColor=#d79b00;" vertex="1" parent="1">
                    <mxGeometry x="550" y="200" width="140" height="70" as="geometry"/>
                </mxCell>
                
                <!-- Cleanse & Chunk Process -->
                <mxCell id="11" value="Cleanse, Chunk &amp; Vectorize" style="rounded=1;whiteSpace=wrap;html=1;fillColor=#f8cecc;strokeColor=#b85450;" vertex="1" parent="1">
                    <mxGeometry x="750" y="200" width="140" height="70" as="geometry"/>
                </mxCell>
                
                <!-- Storage Components -->
                <mxCell id="12" value="Vector DB" style="shape=cylinder3;whiteSpace=wrap;html=1;boundedLbl=1;backgroundOutline=1;size=15;fillColor=#e1d5e7;strokeColor=#9673a6;" vertex="1" parent="1">
                    <mxGeometry x="990" y="120" width="100" height="80" as="geometry"/>
                </mxCell>
                
                <mxCell id="13" value="MongoDB&#10;(Document Storage)" style="shape=cylinder3;whiteSpace=wrap;html=1;boundedLbl=1;backgroundOutline=1;size=15;fillColor=#e1d5e7;strokeColor=#9673a6;" vertex="1" parent="1">
                    <mxGeometry x="990" y="240" width="100" height="80" as="geometry"/>
                </mxCell>
                
                <!-- Prompt Manager -->
                <mxCell id="14" value="Prompt Manager&#10;(Parameterized Prompts&#10;by Report Type)" style="rounded=1;whiteSpace=wrap;html=1;fillColor=#ffe6cc;strokeColor=#d79b00;" vertex="1" parent="1">
                    <mxGeometry x="1170" y="50" width="150" height="80" as="geometry"/>
                </mxCell>
                
                <!-- LangGraph Framework -->
                <mxCell id="15" value="LangGraph Framework" style="rounded=1;whiteSpace=wrap;html=1;fillColor=#fff2cc;strokeColor=#d6b656;fontSize=14;fontStyle=1;" vertex="1" parent="1">
                    <mxGeometry x="1170" y="160" width="200" height="40" as="geometry"/>
                </mxCell>
                
                <!-- Agent 1 -->
                <mxCell id="16" value="Agent 1&#10;Equity Research Analyst" style="rounded=1;whiteSpace=wrap;html=1;fillColor=#d5e8d4;strokeColor=#82b366;" vertex="1" parent="1">
                    <mxGeometry x="1170" y="240" width="150" height="70" as="geometry"/>
                </mxCell>
                
                <!-- Agent 2 -->
                <mxCell id="17" value="Agent 2&#10;Sr. Equity Research Analyst" style="rounded=1;whiteSpace=wrap;html=1;fillColor=#d5e8d4;strokeColor=#82b366;" vertex="1" parent="1">
                    <mxGeometry x="1420" y="240" width="150" height="70" as="geometry"/>
                </mxCell>
                
                <!-- Draft Model -->
                <mxCell id="18" value="Draft Model" style="shape=document;whiteSpace=wrap;html=1;boundedLbl=1;fillColor=#fff2cc;strokeColor=#d6b656;" vertex="1" parent="1">
                    <mxGeometry x="1370" y="350" width="120" height="60" as="geometry"/>
                </mxCell>
                
                <!-- Constructive Feedback -->
                <mxCell id="19" value="Constructive Feedback" style="shape=document;whiteSpace=wrap;html=1;boundedLbl=1;fillColor=#fff2cc;strokeColor=#d6b656;" vertex="1" parent="1">
                    <mxGeometry x="1170" y="350" width="120" height="60" as="geometry"/>
                </mxCell>
                
                <!-- File Writer Tool -->
                <mxCell id="20" value="File Writer Tool" style="shape=process;whiteSpace=wrap;html=1;backgroundOutline=1;fillColor=#f5f5f5;strokeColor=#666666;" vertex="1" parent="1">
                    <mxGeometry x="1370" y="470" width="120" height="60" as="geometry"/>
                </mxCell>
                
                <!-- Human Interaction Points -->
                <mxCell id="21" value="Human Intervention&#10;(Data Extraction Failure)" style="ellipse;whiteSpace=wrap;html=1;fillColor=#ffcccc;strokeColor=#ff6666;" vertex="1" parent="1">
                    <mxGeometry x="990" y="380" width="140" height="70" as="geometry"/>
                </mxCell>
                
                <mxCell id="22" value="Human Approval&#10;(Final Output)" style="ellipse;whiteSpace=wrap;html=1;fillColor=#ffcccc;strokeColor=#ff6666;" vertex="1" parent="1">
                    <mxGeometry x="1550" y="470" width="120" height="60" as="geometry"/>
                </mxCell>
                
                <!-- Final Output -->
                <mxCell id="23" value="Final First Cut Model (CSV)" style="shape=document;whiteSpace=wrap;html=1;boundedLbl=1;fillColor=#d5e8d4;strokeColor=#82b366;" vertex="1" parent="1">
                    <mxGeometry x="1720" y="470" width="140" height="70" as="geometry"/>
                </mxCell>
                
                <!-- Retry Decision -->
                <mxCell id="24" value="Retry Decision" style="rhombus;whiteSpace=wrap;html=1;fillColor=#fff2cc;strokeColor=#d6b656;" vertex="1" parent="1">
                    <mxGeometry x="1560" y="580" width="100" height="60" as="geometry"/>
                </mxCell>
                  <!-- Flow Arrows -->
                <!-- UI to Input Documents -->
                <mxCell id="25" value="uploads" style="endArrow=classic;html=1;exitX=1;exitY=0.5;exitDx=0;exitDy=0;entryX=0;entryY=0.3;entryDx=0;entryDy=0;" edge="1" parent="1" source="3" target="7">
                    <mxGeometry width="50" height="50" relative="1" as="geometry">
                        <mxPoint x="240" y="195" as="sourcePoint"/>
                        <mxPoint x="320" y="135" as="targetPoint"/>
                    </mxGeometry>
                </mxCell>
                
                <!-- Input to Document Manager -->
                <mxCell id="26" value="" style="endArrow=classic;html=1;exitX=1;exitY=0.5;exitDx=0;exitDy=0;entryX=0;entryY=0.3;entryDx=0;entryDy=0;" edge="1" parent="1" source="7" target="10">
                    <mxGeometry width="50" height="50" relative="1" as="geometry">
                        <mxPoint x="470" y="135" as="sourcePoint"/>
                        <mxPoint x="550" y="220" as="targetPoint"/>
                    </mxGeometry>
                </mxCell>
                
                <mxCell id="27" value="" style="endArrow=classic;html=1;exitX=1;exitY=0.5;exitDx=0;exitDy=0;entryX=0;entryY=0.5;entryDx=0;entryDy=0;" edge="1" parent="1" source="8" target="10">
                    <mxGeometry width="50" height="50" relative="1" as="geometry">
                        <mxPoint x="470" y="235" as="sourcePoint"/>
                        <mxPoint x="550" y="235" as="targetPoint"/>
                    </mxGeometry>
                </mxCell>
                
                <mxCell id="28" value="" style="endArrow=classic;html=1;exitX=1;exitY=0.5;exitDx=0;exitDy=0;entryX=0;entryY=0.7;entryDx=0;entryDy=0;" edge="1" parent="1" source="9" target="10">
                    <mxGeometry width="50" height="50" relative="1" as="geometry">
                        <mxPoint x="470" y="335" as="sourcePoint"/>
                        <mxPoint x="550" y="249" as="targetPoint"/>
                    </mxGeometry>
                </mxCell>
                
                <!-- Document Manager to Cleanse & Chunk -->
                <mxCell id="29" value="" style="endArrow=classic;html=1;exitX=1;exitY=0.5;exitDx=0;exitDy=0;entryX=0;entryY=0.5;entryDx=0;entryDy=0;" edge="1" parent="1" source="10" target="11">
                    <mxGeometry width="50" height="50" relative="1" as="geometry">
                        <mxPoint x="700" y="235" as="sourcePoint"/>
                        <mxPoint x="750" y="235" as="targetPoint"/>
                    </mxGeometry>
                </mxCell>
                
                <!-- Cleanse & Chunk to Storage -->
                <mxCell id="30" value="" style="endArrow=classic;html=1;exitX=1;exitY=0.3;exitDx=0;exitDy=0;entryX=0;entryY=0.5;entryDx=0;entryDy=0;" edge="1" parent="1" source="11" target="12">
                    <mxGeometry width="50" height="50" relative="1" as="geometry">
                        <mxPoint x="900" y="221" as="sourcePoint"/>
                        <mxPoint x="990" y="160" as="targetPoint"/>
                    </mxGeometry>
                </mxCell>
                
                <mxCell id="31" value="" style="endArrow=classic;html=1;exitX=1;exitY=0.7;exitDx=0;exitDy=0;entryX=0;entryY=0.5;entryDx=0;entryDy=0;" edge="1" parent="1" source="11" target="13">
                    <mxGeometry width="50" height="50" relative="1" as="geometry">
                        <mxPoint x="900" y="249" as="sourcePoint"/>
                        <mxPoint x="990" y="280" as="targetPoint"/>
                    </mxGeometry>
                </mxCell>
                
                <!-- Vector DB to Agent 1 -->
                <mxCell id="32" value="retrieves" style="endArrow=classic;html=1;exitX=1;exitY=0.5;exitDx=0;exitDy=0;entryX=0;entryY=0.3;entryDx=0;entryDy=0;" edge="1" parent="1" source="12" target="16">
                    <mxGeometry width="50" height="50" relative="1" as="geometry">
                        <mxPoint x="1100" y="160" as="sourcePoint"/>
                        <mxPoint x="1170" y="261" as="targetPoint"/>
                    </mxGeometry>
                </mxCell>
                
                <!-- Prompt Manager to Agents -->
                <mxCell id="33" value="provides prompts" style="endArrow=classic;html=1;exitX=0;exitY=1;exitDx=0;exitDy=0;entryX=0.5;entryY=0;entryDx=0;entryDy=0;" edge="1" parent="1" source="14" target="16">
                    <mxGeometry width="50" height="50" relative="1" as="geometry">
                        <mxPoint x="1170" y="140" as="sourcePoint"/>
                        <mxPoint x="1245" y="240" as="targetPoint"/>
                    </mxGeometry>
                </mxCell>
                
                <mxCell id="34" value="provides prompts" style="endArrow=classic;html=1;exitX=1;exitY=1;exitDx=0;exitDy=0;entryX=0.5;entryY=0;entryDx=0;entryDy=0;" edge="1" parent="1" source="14" target="17">
                    <mxGeometry width="50" height="50" relative="1" as="geometry">
                        <mxPoint x="1330" y="140" as="sourcePoint"/>
                        <mxPoint x="1495" y="240" as="targetPoint"/>
                    </mxGeometry>
                </mxCell>
                
                <!-- Agent 1 to Draft Model -->
                <mxCell id="35" value="generates" style="endArrow=classic;html=1;exitX=0.5;exitY=1;exitDx=0;exitDy=0;entryX=0;entryY=0.5;entryDx=0;entryDy=0;" edge="1" parent="1" source="16" target="18">
                    <mxGeometry width="50" height="50" relative="1" as="geometry">
                        <mxPoint x="1245" y="320" as="sourcePoint"/>
                        <mxPoint x="1370" y="380" as="targetPoint"/>
                    </mxGeometry>
                </mxCell>
                
                <!-- Draft Model to Agent 2 -->
                <mxCell id="36" value="reviews" style="endArrow=classic;html=1;exitX=1;exitY=0.5;exitDx=0;exitDy=0;entryX=0.5;entryY=1;entryDx=0;entryDy=0;" edge="1" parent="1" source="18" target="17">
                    <mxGeometry width="50" height="50" relative="1" as="geometry">
                        <mxPoint x="1500" y="380" as="sourcePoint"/>
                        <mxPoint x="1495" y="320" as="targetPoint"/>
                    </mxGeometry>
                </mxCell>
                
                <!-- Agent 2 to Feedback -->
                <mxCell id="37" value="provides feedback" style="endArrow=classic;html=1;exitX=0;exitY=0.5;exitDx=0;exitDy=0;entryX=1;entryY=0.5;entryDx=0;entryDy=0;" edge="1" parent="1" source="17" target="19">
                    <mxGeometry width="50" height="50" relative="1" as="geometry">
                        <mxPoint x="1410" y="275" as="sourcePoint"/>
                        <mxPoint x="1300" y="380" as="targetPoint"/>
                        <Array as="points">
                            <mxPoint x="1350" y="275"/>
                            <mxPoint x="1350" y="380"/>
                        </Array>
                    </mxGeometry>
                </mxCell>
                
                <!-- Feedback to Agent 1 -->
                <mxCell id="38" value="incorporates feedback" style="endArrow=classic;html=1;exitX=0.5;exitY=0;exitDx=0;exitDy=0;entryX=0.5;entryY=1;entryDx=0;entryDy=0;" edge="1" parent="1" source="19" target="16">
                    <mxGeometry width="50" height="50" relative="1" as="geometry">
                        <mxPoint x="1230" y="340" as="sourcePoint"/>
                        <mxPoint x="1245" y="320" as="targetPoint"/>
                    </mxGeometry>
                </mxCell>
                
                <!-- Agent 1 to File Writer Tool -->
                <mxCell id="39" value="uses" style="endArrow=classic;html=1;exitX=1;exitY=1;exitDx=0;exitDy=0;entryX=0;entryY=0.5;entryDx=0;entryDy=0;" edge="1" parent="1" source="16" target="20">
                    <mxGeometry width="50" height="50" relative="1" as="geometry">
                        <mxPoint x="1330" y="320" as="sourcePoint"/>
                        <mxPoint x="1370" y="500" as="targetPoint"/>
                    </mxGeometry>
                </mxCell>
                
                <!-- File Writer to Human Approval -->
                <mxCell id="40" value="requests approval" style="endArrow=classic;html=1;exitX=1;exitY=0.5;exitDx=0;exitDy=0;entryX=0;entryY=0.5;entryDx=0;entryDy=0;" edge="1" parent="1" source="20" target="22">
                    <mxGeometry width="50" height="50" relative="1" as="geometry">
                        <mxPoint x="1500" y="500" as="sourcePoint"/>
                        <mxPoint x="1550" y="500" as="targetPoint"/>
                    </mxGeometry>
                </mxCell>
                
                <!-- Human Approval to Final Output -->
                <mxCell id="41" value="approved" style="endArrow=classic;html=1;exitX=1;exitY=0.5;exitDx=0;exitDy=0;entryX=0;entryY=0.5;entryDx=0;entryDy=0;" edge="1" parent="1" source="22" target="23">
                    <mxGeometry width="50" height="50" relative="1" as="geometry">
                        <mxPoint x="1680" y="500" as="sourcePoint"/>
                        <mxPoint x="1720" y="505" as="targetPoint"/>
                    </mxGeometry>
                </mxCell>
                
                <!-- Human Approval to Retry Decision -->
                <mxCell id="42" value="needs retry" style="endArrow=classic;html=1;exitX=0.5;exitY=1;exitDx=0;exitDy=0;entryX=0.5;entryY=0;entryDx=0;entryDy=0;" edge="1" parent="1" source="22" target="24">
                    <mxGeometry width="50" height="50" relative="1" as="geometry">
                        <mxPoint x="1610" y="540" as="sourcePoint"/>
                        <mxPoint x="1610" y="580" as="targetPoint"/>
                    </mxGeometry>
                </mxCell>
                
                <!-- Retry back to Agent 1 -->
                <mxCell id="43" value="retry" style="endArrow=classic;html=1;exitX=0;exitY=0.5;exitDx=0;exitDy=0;entryX=1;entryY=1;entryDx=0;entryDy=0;" edge="1" parent="1" source="24" target="16">
                    <mxGeometry width="50" height="50" relative="1" as="geometry">
                        <mxPoint x="1550" y="610" as="sourcePoint"/>
                        <mxPoint x="1330" y="320" as="targetPoint"/>
                        <Array as="points">
                            <mxPoint x="1470" y="610"/>
                            <mxPoint x="1350" y="610"/>
                            <mxPoint x="1350" y="320"/>
                        </Array>
                    </mxGeometry>
                </mxCell>
                
                <!-- Human Intervention Connection -->
                <mxCell id="44" value="interrupts if extraction fails" style="endArrow=classic;html=1;exitX=0.5;exitY=0;exitDx=0;exitDy=0;entryX=0.5;entryY=1;entryDx=0;entryDy=0;" edge="1" parent="1" source="21" target="16">
                    <mxGeometry width="50" height="50" relative="1" as="geometry">
                        <mxPoint x="1060" y="370" as="sourcePoint"/>
                        <mxPoint x="1245" y="320" as="targetPoint"/>
                        <Array as="points">
                            <mxPoint x="1060" y="330"/>
                            <mxPoint x="1245" y="330"/>
                        </Array>
                    </mxGeometry>
                </mxCell>
                
                <!-- Progress Updates to UI -->
                <mxCell id="45" value="progress updates" style="endArrow=classic;html=1;exitX=0;exitY=0.5;exitDx=0;exitDy=0;entryX=1;entryY=0.5;entryDx=0;entryDy=0;" edge="1" parent="1" source="16" target="4">
                    <mxGeometry width="50" height="50" relative="1" as="geometry">
                        <mxPoint x="1160" y="275" as="sourcePoint"/>
                        <mxPoint x="240" y="265" as="targetPoint"/>
                        <Array as="points">
                            <mxPoint x="280" y="275"/>
                            <mxPoint x="280" y="265"/>
                        </Array>
                    </mxGeometry>
                </mxCell>
                
                <!-- Human Approval from UI -->
                <mxCell id="46" value="approval request" style="endArrow=classic;html=1;exitX=1;exitY=0.5;exitDx=0;exitDy=0;entryX=0;entryY=1;entryDx=0;entryDy=0;" edge="1" parent="1" source="5" target="22">
                    <mxGeometry width="50" height="50" relative="1" as="geometry">
                        <mxPoint x="240" y="335" as="sourcePoint"/>
                        <mxPoint x="1540" y="540" as="targetPoint"/>
                        <Array as="points">
                            <mxPoint x="280" y="335"/>
                            <mxPoint x="280" y="670"/>
                            <mxPoint x="1530" y="670"/>
                            <mxPoint x="1530" y="530"/>
                        </Array>
                    </mxGeometry>
                </mxCell>
                
                <!-- Final Results to UI -->
                <mxCell id="47" value="results download" style="endArrow=classic;html=1;exitX=0;exitY=1;exitDx=0;exitDy=0;entryX=1;entryY=0.5;entryDx=0;entryDy=0;" edge="1" parent="1" source="23" target="6">
                    <mxGeometry width="50" height="50" relative="1" as="geometry">
                        <mxPoint x="1710" y="550" as="sourcePoint"/>
                        <mxPoint x="240" y="405" as="targetPoint"/>
                        <Array as="points">
                            <mxPoint x="1710" y="700"/>
                            <mxPoint x="260" y="700"/>
                            <mxPoint x="260" y="405"/>
                        </Array>
                    </mxGeometry>
                </mxCell>
                  <!-- Technology Stack Label -->
                <mxCell id="48" value="Technology Stack:&#10;• LangGraph Framework&#10;• Vector Database&#10;• MongoDB" style="text;html=1;strokeColor=none;fillColor=none;align=left;verticalAlign=top;whiteSpace=wrap;rounded=0;fontSize=12;fontStyle=1;" vertex="1" parent="1">
                    <mxGeometry x="320" y="500" width="200" height="80" as="geometry"/>
                </mxCell>
                
                <!-- Architecture Sections -->
                <mxCell id="49" value="UI Layer" style="text;html=1;strokeColor=none;fillColor=none;align=center;verticalAlign=middle;whiteSpace=wrap;rounded=0;fontSize=16;fontStyle=1;fontColor=#9673a6;" vertex="1" parent="1">
                    <mxGeometry x="120" y="40" width="80" height="30" as="geometry"/>
                </mxCell>
                
                <mxCell id="50" value="Server Side Components" style="text;html=1;strokeColor=none;fillColor=none;align=center;verticalAlign=middle;whiteSpace=wrap;rounded=0;fontSize=16;fontStyle=1;fontColor=#9673a6;" vertex="1" parent="1">
                    <mxGeometry x="1200" y="10" width="200" height="30" as="geometry"/>
                </mxCell>
                
                <!-- Legend -->
                <mxCell id="51" value="Legend:" style="text;html=1;strokeColor=none;fillColor=none;align=left;verticalAlign=top;whiteSpace=wrap;rounded=0;fontSize=12;fontStyle=1;" vertex="1" parent="1">
                    <mxGeometry x="50" y="720" width="60" height="20" as="geometry"/>
                </mxCell>
                
                <mxCell id="52" value="UI Components" style="rounded=1;whiteSpace=wrap;html=1;fillColor=#cfe2f3;strokeColor=#6d9eeb;" vertex="1" parent="1">
                    <mxGeometry x="50" y="750" width="100" height="30" as="geometry"/>
                </mxCell>
                
                <mxCell id="53" value="Input Documents" style="shape=document;whiteSpace=wrap;html=1;boundedLbl=1;fillColor=#dae8fc;strokeColor=#6c8ebf;" vertex="1" parent="1">
                    <mxGeometry x="170" y="750" width="80" height="30" as="geometry"/>
                </mxCell>
                
                <mxCell id="54" value="Agents" style="rounded=1;whiteSpace=wrap;html=1;fillColor=#d5e8d4;strokeColor=#82b366;" vertex="1" parent="1">
                    <mxGeometry x="270" y="750" width="80" height="30" as="geometry"/>
                </mxCell>
                
                <mxCell id="55" value="Storage" style="shape=cylinder3;whiteSpace=wrap;html=1;boundedLbl=1;backgroundOutline=1;size=15;fillColor=#e1d5e7;strokeColor=#9673a6;" vertex="1" parent="1">
                    <mxGeometry x="370" y="750" width="60" height="30" as="geometry"/>
                </mxCell>
                
                <mxCell id="56" value="Tools" style="shape=process;whiteSpace=wrap;html=1;backgroundOutline=1;fillColor=#f5f5f5;strokeColor=#666666;" vertex="1" parent="1">
                    <mxGeometry x="450" y="750" width="60" height="30" as="geometry"/>
                </mxCell>
                
                <mxCell id="57" value="Human Interaction" style="ellipse;whiteSpace=wrap;html=1;fillColor=#ffcccc;strokeColor=#ff6666;" vertex="1" parent="1">
                    <mxGeometry x="530" y="750" width="100" height="30" as="geometry"/>
                </mxCell>
            </root>
        </mxGraphModel>
    </diagram>
</mxfile>
